<svg width="26" height="26" viewBox="0 0 26 26" fill="none" xmlns="http://www.w3.org/2000/svg">
<path d="M16.0132 0.0184001C16.5655 0.00170687 17.2669 0.360412 17.7879 0.567089L18.7898 0.964034C19.0172 1.0542 19.3355 1.16965 19.5365 1.29566C19.7475 1.42962 19.9231 1.61231 20.049 1.82827C20.4055 2.43838 20.2457 2.94463 20.0791 3.56176L19.838 4.45715C20.4421 4.96712 20.8674 5.39115 21.3715 5.9977C22.0664 5.82314 22.9179 5.39609 23.5924 5.56357C24.006 5.66251 24.362 5.92575 24.5782 6.29214C24.7424 6.57337 25.0613 7.36421 25.2083 7.70607L25.6002 8.61753C25.6675 8.77386 25.735 8.93106 25.7982 9.08683C26.0009 9.5872 25.9241 10.155 25.6173 10.5972C25.3786 10.9412 25.0051 11.1209 24.6505 11.3248L23.7712 11.8303C23.8252 12.6258 23.8357 12.9956 23.7893 13.7969C24.2988 14.0797 24.8919 14.3577 25.3681 14.6732C25.864 15.0017 26.1099 15.7683 25.9529 16.3283C25.8934 16.5402 25.8001 16.7654 25.7158 16.9775L25.361 17.8659L25.0123 18.7432C24.8719 19.096 24.7834 19.3804 24.5078 19.6576C24.1123 20.055 23.5661 20.2038 23.0196 20.0877C22.8145 20.0443 22.6151 19.985 22.4146 19.931L21.4659 19.6737C21.1091 20.1649 20.4872 20.7683 20.0369 21.169C20.1342 21.5255 20.2575 21.8887 20.3595 22.2453C20.4281 22.4845 20.5137 22.7144 20.5424 22.9638C20.5651 23.1573 20.5518 23.3533 20.5032 23.5417C20.3021 24.2981 19.8191 24.5098 19.1667 24.7908L18.3195 25.1556L17.4543 25.5284C17.2943 25.5974 17.1329 25.6691 16.9729 25.7314C16.4639 25.9296 15.8812 25.8452 15.4424 25.5204C15.1168 25.2791 14.948 24.9298 14.751 24.5858L14.2606 23.7306C13.6459 23.8398 12.6443 23.8244 12.0267 23.7849C11.9058 24.034 11.7442 24.3152 11.6127 24.5627C11.2717 25.204 11.1181 25.5856 10.4088 25.855C9.82304 26.0272 9.43916 25.8824 8.90339 25.656C8.66219 25.554 8.39825 25.4557 8.15371 25.3586L7.22818 24.9898C7.01694 24.9055 6.80068 24.8246 6.59708 24.7255C6.13826 24.5017 5.82274 24.0455 5.74993 23.5437C5.69107 23.1375 5.81303 22.7787 5.91675 22.393L6.16095 21.4836C5.51563 20.9677 5.11363 20.5718 4.57216 19.9541C4.22463 20.0606 3.25085 20.3758 2.9472 20.4083C2.76322 20.4277 2.57722 20.4149 2.39751 20.3711C1.62952 20.1832 1.40991 19.6766 1.12728 19.0215L0.744407 18.1332L0.376605 17.28C0.159417 16.7746 -0.0149506 16.4226 0.138438 15.854C0.317777 15.1894 0.723035 14.9684 1.27903 14.6491L2.06689 14.1979C1.98299 13.4825 1.9683 12.7604 2.02368 12.0423C1.44378 11.6908 0.615478 11.4261 0.24496 10.8434C-0.183623 10.1694 0.0272738 9.60644 0.293196 8.9371L0.646929 8.04473L0.982574 7.2016C1.06503 6.99436 1.16154 6.72081 1.28104 6.53634C1.58565 6.06613 2.14522 5.78055 2.70501 5.81782C2.96327 5.83505 3.18422 5.90363 3.42956 5.97057C3.71537 6.05147 4.00261 6.12862 4.29078 6.20069C4.6743 5.65508 5.39182 4.97102 5.89163 4.53654L5.65849 3.76677C5.51583 3.29433 5.36202 2.90983 5.49468 2.41112C5.69828 1.64587 6.17295 1.4395 6.83123 1.15497L7.73466 0.766064L8.55468 0.41233C9.07143 0.189528 9.43294 0.00730796 10.0148 0.163109C10.6731 0.339382 10.898 0.748323 11.2137 1.29867L11.6478 2.0584C12.487 1.96191 13.2004 1.96916 14.0365 2.04031C14.1325 1.86037 14.2383 1.6712 14.33 1.49061C14.7268 0.708944 15.0331 0.0864409 16.0132 0.0184001ZM16.0032 0.865551C15.7893 0.903352 15.5766 1.00205 15.4645 1.19316C15.1282 1.76652 14.8259 2.37602 14.5058 2.9578C13.1845 2.75895 12.4863 2.81397 11.1976 2.97589L10.5796 1.89962C10.3786 1.55019 10.1932 1.08186 9.77465 0.978103C9.65492 0.949133 9.52991 0.950514 9.41087 0.982122C9.29909 1.01121 9.04924 1.12323 8.93353 1.17306L8.13261 1.51875L7.16688 1.9358C6.80929 2.09024 6.37779 2.2169 6.30666 2.66135C6.25863 2.96224 6.437 3.40767 6.52373 3.70245C6.63565 4.08294 6.74812 4.47082 6.86841 4.84606C6.10377 5.44131 5.43245 6.07262 4.85656 6.8559C4.78415 6.95438 4.69812 7.08045 4.61939 7.17145L3.41449 6.84485C3.08646 6.75588 2.67053 6.59131 2.34123 6.71622C1.97993 6.85332 1.88121 7.23917 1.75134 7.56638L1.38052 8.50096L1.06096 9.30289C0.881984 9.75 0.648866 10.2383 1.18054 10.6103C1.42546 10.7817 1.71672 10.8983 1.97343 11.0515C2.27485 11.204 2.61929 11.4157 2.91705 11.5559C2.80511 12.7889 2.79813 13.4142 2.9874 14.6481L1.85987 15.2953C1.39826 15.5598 0.773001 15.8113 0.96549 16.4781C1.01372 16.645 1.10883 16.8378 1.17853 16.9996L1.57548 17.9211L1.93022 18.7442C2.0776 19.0858 2.19101 19.4599 2.60553 19.5541C2.89565 19.6199 3.22647 19.4691 3.50393 19.3943C3.96283 19.2704 4.42344 19.0975 4.88268 18.9813C5.57312 19.8987 6.21779 20.4729 7.12668 21.153L6.77496 22.4694C6.6061 23.101 6.33018 23.7311 7.14577 24.0461C7.23127 24.0791 7.32141 24.1159 7.40705 24.1496L8.13964 24.4421L9.15462 24.8461C9.56575 25.0095 9.87934 25.2135 10.3083 24.9757C10.5877 24.7809 10.769 24.3406 10.9333 24.0381C11.1386 23.6603 11.3549 23.2713 11.5494 22.8885C12.6904 23.0093 13.5629 23.0144 14.7088 22.8141L15.4113 24.0341C15.543 24.2633 15.6847 24.5567 15.8565 24.7516C16.24 25.1865 16.7026 24.9324 17.1106 24.7566L17.999 24.3737L18.8521 24.0059C19.0164 23.9351 19.2438 23.8507 19.3888 23.7537C19.9401 23.385 19.6142 22.705 19.4671 22.2152L19.0642 20.8766C19.9569 20.1376 20.4406 19.6531 21.1353 18.712L22.5271 19.0858C22.7815 19.1546 23.0762 19.2567 23.3351 19.2768C23.9092 19.3212 24.0626 18.8447 24.2265 18.4326L24.542 17.6357L24.9138 16.7032C25.0603 16.3349 25.2829 15.9458 25.0495 15.5656C24.9338 15.3774 24.7397 15.2722 24.5511 15.1716C24.0015 14.8677 23.435 14.5841 22.8879 14.2773C23.0095 13.1595 23.0131 12.502 22.8648 11.375L24.0868 10.6726C24.3008 10.5495 24.5421 10.4315 24.739 10.2857C25.247 9.90921 25.0527 9.48996 24.8606 9.04262L24.5269 8.26782L24.1089 7.29908C23.9564 6.94514 23.8131 6.44817 23.3622 6.38057C23.0537 6.33446 22.616 6.50896 22.3121 6.60166L21.062 6.98051C20.4382 6.17847 19.7192 5.36803 18.8763 4.78676C18.9902 4.35039 19.1068 3.91438 19.226 3.47936C19.2945 3.22517 19.4068 2.8976 19.4169 2.64025C19.4392 2.07128 18.8948 1.91667 18.4884 1.75692L17.6312 1.41926L16.8141 1.09065C16.5572 0.987238 16.2846 0.850288 16.0032 0.865551Z" fill="white"/>
<path d="M12.5091 6.36458C12.6891 6.35014 12.8936 6.34761 13.0749 6.34933C14.8403 6.36781 16.5241 7.09489 17.7482 8.36714C17.5709 8.56634 17.344 8.78598 17.1543 8.97825C16.5517 8.36582 15.9156 7.91794 15.1127 7.59839C13.7015 7.0371 12.1251 7.05881 10.7297 7.65876C9.31041 8.27284 8.19309 9.42547 7.62341 10.8632C7.07095 12.2708 7.09751 13.8397 7.69729 15.228C8.30899 16.6419 9.4586 17.7541 10.892 18.3186C12.3095 18.8738 13.8897 18.8423 15.2838 18.2307C16.7876 17.5714 17.8192 16.4066 18.4114 14.8912C18.8089 13.7994 18.8424 12.6787 18.576 11.5547C18.8066 11.3241 19.0345 11.0909 19.2598 10.855C19.4298 11.4253 19.528 11.8312 19.5754 12.4303C19.7151 14.169 19.1604 15.8924 18.0325 17.2232C16.8986 18.5631 15.2776 19.3961 13.5281 19.5378C11.7717 19.6833 10.03 19.1203 8.6911 17.9741C7.36536 16.8412 6.54267 15.229 6.40321 13.4906C6.25849 11.7304 6.82463 9.98543 7.97523 8.64543C9.12125 7.31016 10.7538 6.48885 12.5091 6.36458Z" fill="white"/>
<path d="M18.9206 8.5147C18.9455 8.51255 18.9705 8.51115 18.9957 8.51049C19.1086 8.50845 19.1968 8.58173 19.2735 8.65936C19.487 8.87535 19.7203 9.11538 19.4552 9.40423C19.2092 9.67231 18.9498 9.928 18.6955 10.1874L17.1882 11.7273L12.5904 16.429C12.4358 16.5854 12.2404 16.6983 12.0512 16.5321C11.7971 16.309 11.5511 16.0319 11.3115 15.7928L9.42182 13.898C9.25294 13.7305 9.08414 13.5601 8.91773 13.39C8.84318 13.3137 8.70758 13.182 8.741 13.0682C8.85797 12.9193 9.18038 12.537 9.36112 12.5047C9.54781 12.5584 10.3809 13.4099 10.6032 13.6249C11.1561 14.1541 11.7057 14.6868 12.252 15.2227C12.728 14.7621 13.2282 14.2289 13.6965 13.7529L16.9505 10.4359L18.1518 9.21261C18.3327 9.02821 18.7015 8.60189 18.9206 8.5147Z" fill="white"/>
</svg>
